<?xml version="1.0" encoding="UTF-8" standalone="no"?>
<!-- Created with Inkscape (http://www.inkscape.org/) -->

<svg
   xmlns:dc="http://purl.org/dc/elements/1.1/"
   xmlns:cc="http://creativecommons.org/ns#"
   xmlns:rdf="http://www.w3.org/1999/02/22-rdf-syntax-ns#"
   xmlns:svg="http://www.w3.org/2000/svg"
   xmlns="http://www.w3.org/2000/svg"
   xmlns:sodipodi="http://sodipodi.sourceforge.net/DTD/sodipodi-0.dtd"
   xmlns:inkscape="http://www.inkscape.org/namespaces/inkscape"
   width="210mm"
   height="297mm"
   viewBox="0 0 210 297"
   version="1.1"
   id="svg8"
   inkscape:version="0.92.3 (2405546, 2018-03-11)"
   sodipodi:docname="first logo.svg">
  <defs
     id="defs2" />
  <sodipodi:namedview
     id="base"
     pagecolor="#ffffff"
     bordercolor="#666666"
     borderopacity="1.0"
     inkscape:pageopacity="0.0"
     inkscape:pageshadow="2"
     inkscape:zoom="1"
     inkscape:cx="251.3446"
     inkscape:cy="839.82409"
     inkscape:document-units="px"
     inkscape:current-layer="layer1"
     showgrid="false"
     inkscape:snap-bbox="false"
     inkscape:snap-intersection-paths="false"
     inkscape:snap-smooth-nodes="true"
     showborder="false"
     inkscape:window-width="1920"
     inkscape:window-height="1017"
     inkscape:window-x="-8"
     inkscape:window-y="-8"
     inkscape:window-maximized="1" />
  <metadata
     id="metadata5">
    <rdf:RDF>
      <cc:Work
         rdf:about="">
        <dc:format>image/svg+xml</dc:format>
        <dc:type
           rdf:resource="http://purl.org/dc/dcmitype/StillImage" />
        <dc:title></dc:title>
      </cc:Work>
    </rdf:RDF>
  </metadata>
  <g
     inkscape:label="Layer 1"
     inkscape:groupmode="layer"
     id="layer1">
    <path
       style="color:#000000;font-style:normal;font-variant:normal;font-weight:normal;font-stretch:normal;font-size:medium;line-height:normal;font-family:sans-serif;font-variant-ligatures:normal;font-variant-position:normal;font-variant-caps:normal;font-variant-numeric:normal;font-variant-alternates:normal;font-feature-settings:normal;text-indent:0;text-align:start;text-decoration:none;text-decoration-line:none;text-decoration-style:solid;text-decoration-color:#000000;letter-spacing:normal;word-spacing:normal;text-transform:none;writing-mode:lr-tb;direction:ltr;text-orientation:mixed;dominant-baseline:auto;baseline-shift:baseline;text-anchor:start;white-space:normal;shape-padding:0;clip-rule:nonzero;display:inline;overflow:visible;visibility:visible;opacity:1;isolation:auto;mix-blend-mode:normal;color-interpolation:sRGB;color-interpolation-filters:linearRGB;solid-color:#000000;solid-opacity:1;vector-effect:none;fill:#000000;fill-opacity:1;fill-rule:nonzero;stroke:none;stroke-width:5.29166651;stroke-linecap:butt;stroke-linejoin:miter;stroke-miterlimit:4;stroke-dasharray:none;stroke-dashoffset:0;stroke-opacity:1;color-rendering:auto;image-rendering:auto;shape-rendering:auto;text-rendering:auto;enable-background:accumulate"
       d="M 67.289436,31.98306 C 53.736813,32.00687 40.31611,34.658431 27.771949,39.787752 l -3.855577,1.576131 0.160198,4.166153 c 0.301723,7.777991 1.465982,15.423642 3.426147,22.815145 h 5.484935 c -2.084663,-7.437358 -3.316613,-15.157402 -3.621485,-23.0203 v -0.0021 l -0.01964,-0.46302 0.427879,-0.173633 h 0.0021 c 11.910439,-4.870194 24.64974,-7.387289 37.517088,-7.4104 h 0.0041 0.0016 0.0062 c 12.846864,0.02125 25.567727,2.527499 37.462826,7.380944 l 0.42788,0.175699 -0.0176,0.460954 c -0.28932,7.871725 -1.50853,15.602609 -3.58221,23.051823 h 5.48236 c 1.95056,-7.406166 3.10208,-15.066042 3.38842,-22.856486 l 0.15451,-4.159954 -3.85351,-1.570445 C 94.240103,34.646591 80.840084,32.004907 67.30907,31.98306 h -0.0021 -0.0083 -0.0078 z M 35.723919,89.649822 c 6.735178,13.022848 16.199297,24.640828 27.948165,33.967958 l 3.712951,2.94917 3.705201,-2.95693 C 82.787605,114.27101 92.204385,102.65709 98.900942,89.649822 H 92.907508 C 86.651869,101.0205 78.166321,111.18875 67.789662,119.47332 l -0.411861,0.32815 -0.413927,-0.32815 C 56.542373,111.20021 48.014971,101.03091 41.724071,89.649822 Z"
       id="path4529"
       inkscape:connector-curvature="0" />
    <path
       style="color:#000000;font-style:normal;font-variant:normal;font-weight:normal;font-stretch:normal;font-size:medium;line-height:normal;font-family:sans-serif;font-variant-ligatures:normal;font-variant-position:normal;font-variant-caps:normal;font-variant-numeric:normal;font-variant-alternates:normal;font-feature-settings:normal;text-indent:0;text-align:start;text-decoration:none;text-decoration-line:none;text-decoration-style:solid;text-decoration-color:#000000;letter-spacing:normal;word-spacing:normal;text-transform:none;writing-mode:lr-tb;direction:ltr;text-orientation:mixed;dominant-baseline:auto;baseline-shift:baseline;text-anchor:start;white-space:normal;shape-padding:0;clip-rule:nonzero;display:inline;overflow:visible;visibility:visible;opacity:1;isolation:auto;mix-blend-mode:normal;color-interpolation:sRGB;color-interpolation-filters:linearRGB;solid-color:#000000;solid-opacity:1;vector-effect:none;fill:#000000;fill-opacity:1;fill-rule:nonzero;stroke:none;stroke-width:6.61458302;stroke-linecap:butt;stroke-linejoin:miter;stroke-miterlimit:4;stroke-dasharray:none;stroke-dashoffset:0;stroke-opacity:1;color-rendering:auto;image-rendering:auto;shape-rendering:auto;text-rendering:auto;enable-background:accumulate"
       d="m 67.287367,41.244511 c -11.5457,0.0217 -22.958568,2.215041 -33.740058,6.308659 0.333764,5.218596 1.093933,10.361258 2.253091,15.385105 l 30.999141,-5.593456 0.469739,-0.08475 31.494719,5.682855 C 99.915992,57.90925 100.66714,52.757267 100.99074,47.529913 90.223127,43.450215 78.826967,41.26454 67.299254,41.244511 Z m -0.01809,2.630845 1.199927,3.792535 3.977535,-0.03101 -3.235979,2.313038 1.258321,3.773413 -3.199804,-2.362647 -3.200321,2.362647 1.258321,-3.773413 -3.235978,-2.313038 3.977534,0.03101 z m -14.499373,2.753839 0.59273,1.873787 1.965254,-0.01499 -1.59887,1.143082 0.621668,1.864487 -1.580782,-1.167371 -1.581298,1.167371 0.621667,-1.864487 -1.598869,-1.143082 1.965254,0.01499 z m 28.998748,0 0.592728,1.873787 1.965253,-0.01499 -1.598866,1.143082 0.621665,1.864487 -1.58078,-1.167371 -1.581301,1.167371 0.621668,-1.864487 -1.598869,-1.143082 1.965256,0.01499 z m 1.045414,51.300744 -15.545305,2.805001 -15.415596,-2.781747 c 4.454707,6.071437 9.647163,11.646987 15.510682,16.584517 5.843259,-4.94826 11.015543,-10.53171 15.450219,-16.607771 z"
       id="path4518"
       inkscape:connector-curvature="0" />
    <text
       xml:space="preserve"
       style="font-style:normal;font-variant:normal;font-weight:bold;font-stretch:normal;font-size:16.31099319px;line-height:1.25;font-family:Georgia;-inkscape-font-specification:'Georgia, Bold';font-variant-ligatures:normal;font-variant-caps:normal;font-variant-numeric:normal;font-feature-settings:normal;text-align:start;letter-spacing:0px;word-spacing:0px;writing-mode:lr-tb;text-anchor:start;opacity:1;fill:#000000;fill-opacity:1;stroke:none;stroke-width:0.40777478;"
       x="9.4955397"
       y="84.648438"
       id="text4535"><tspan
         sodipodi:role="line"
         id="tspan4533"
         x="9.4955397"
         y="84.648438"
         style="font-style:normal;font-variant:normal;font-weight:bold;font-stretch:normal;font-size:16.31099319px;font-family:Georgia;-inkscape-font-specification:'Georgia, Bold';font-variant-ligatures:normal;font-variant-caps:normal;font-variant-numeric:normal;font-feature-settings:normal;text-align:start;writing-mode:lr-tb;text-anchor:start;fill:#000000;stroke-width:0.40777478;">SUPER LOGO</tspan></text>
    <path
       style="opacity:1;fill:#000000;fill-opacity:1;fill-rule:nonzero;stroke:none;stroke-width:3.27915263;stroke-miterlimit:4;stroke-dasharray:none;stroke-opacity:1"
       d="m 67.269027,59.94859 46.534883,8.396587 H 20.734137 Z"
       id="rect4543"
       inkscape:connector-curvature="0"
       sodipodi:nodetypes="cccc" />
    <path
       sodipodi:nodetypes="cccc"
       inkscape:connector-curvature="0"
       id="path4546"
       d="m 67.269017,98.046407 -46.53488,-8.39658 h 93.069773 z"
       style="opacity:1;fill:#000000;fill-opacity:1;fill-rule:nonzero;stroke:none;stroke-width:3.27915263;stroke-miterlimit:4;stroke-dasharray:none;stroke-opacity:1" />
  </g>
</svg>
